<mxfile host="app.diagrams.net" agent="Mozilla/5.0 (Windows NT 10.0; Win64; x64) AppleWebKit/537.36 (KHTML, like Gecko) Chrome/130.0.0.0 Safari/537.36" version="24.8.3">
  <diagram name="Halaman-1" id="3GtTifSFDHcDoZ3F5JwF">
    <mxGraphModel dx="1050" dy="557" grid="1" gridSize="10" guides="1" tooltips="1" connect="1" arrows="1" fold="1" page="1" pageScale="1" pageWidth="827" pageHeight="1169" math="0" shadow="0">
      <root>
        <mxCell id="0" />
        <mxCell id="1" parent="0" />
        <mxCell id="LxVqRqJat0blrXqKGGtu-1" value="&lt;h1 style=&quot;margin-top: 0px;&quot;&gt;&lt;span style=&quot;background-color: initial;&quot;&gt;Database MyApp&lt;/span&gt;&lt;/h1&gt;&lt;h1 style=&quot;margin-top: 0px;&quot;&gt;&lt;span style=&quot;font-size: 12px; font-weight: 400; background-color: initial;&quot;&gt;struktur database mysql untuk applikasi myapp&lt;/span&gt;&lt;/h1&gt;" style="text;html=1;whiteSpace=wrap;overflow=hidden;rounded=0;" vertex="1" parent="1">
          <mxGeometry width="260" height="80" as="geometry" />
        </mxCell>
        <mxCell id="LxVqRqJat0blrXqKGGtu-2" value="" style="rounded=1;whiteSpace=wrap;html=1;" vertex="1" parent="1">
          <mxGeometry x="40" y="190" width="140" height="60" as="geometry" />
        </mxCell>
        <mxCell id="LxVqRqJat0blrXqKGGtu-3" value="" style="group" vertex="1" connectable="0" parent="1">
          <mxGeometry x="370" y="80" width="60" height="80" as="geometry" />
        </mxCell>
        <mxCell id="LxVqRqJat0blrXqKGGtu-4" value="" style="shape=cylinder3;whiteSpace=wrap;html=1;boundedLbl=1;backgroundOutline=1;size=15;" vertex="1" parent="LxVqRqJat0blrXqKGGtu-3">
          <mxGeometry width="60" height="80" as="geometry" />
        </mxCell>
        <mxCell id="LxVqRqJat0blrXqKGGtu-5" value="Chatapp" style="text;html=1;align=center;verticalAlign=middle;whiteSpace=wrap;rounded=0;" vertex="1" parent="LxVqRqJat0blrXqKGGtu-3">
          <mxGeometry y="35" width="60" height="30" as="geometry" />
        </mxCell>
        <mxCell id="LxVqRqJat0blrXqKGGtu-6" value="" style="rounded=1;whiteSpace=wrap;html=1;" vertex="1" parent="1">
          <mxGeometry x="220" y="190" width="140" height="60" as="geometry" />
        </mxCell>
        <mxCell id="LxVqRqJat0blrXqKGGtu-7" style="edgeStyle=orthogonalEdgeStyle;rounded=0;orthogonalLoop=1;jettySize=auto;html=1;entryX=0.417;entryY=0.167;entryDx=0;entryDy=0;entryPerimeter=0;exitX=0;exitY=0.5;exitDx=0;exitDy=0;exitPerimeter=0;" edge="1" parent="1" source="LxVqRqJat0blrXqKGGtu-4">
          <mxGeometry relative="1" as="geometry">
            <mxPoint x="299.96" y="109.98" as="sourcePoint" />
            <mxPoint x="109.99999999999996" y="189.99999999999997" as="targetPoint" />
          </mxGeometry>
        </mxCell>
        <mxCell id="LxVqRqJat0blrXqKGGtu-8" value="Register" style="text;html=1;align=center;verticalAlign=middle;whiteSpace=wrap;rounded=0;" vertex="1" parent="1">
          <mxGeometry x="80" y="205" width="60" height="30" as="geometry" />
        </mxCell>
        <mxCell id="LxVqRqJat0blrXqKGGtu-9" value="Chat" style="text;html=1;align=center;verticalAlign=middle;whiteSpace=wrap;rounded=0;" vertex="1" parent="1">
          <mxGeometry x="260" y="205" width="60" height="30" as="geometry" />
        </mxCell>
        <mxCell id="LxVqRqJat0blrXqKGGtu-10" value="List" style="swimlane;fontStyle=0;childLayout=stackLayout;horizontal=1;startSize=30;horizontalStack=0;resizeParent=1;resizeParentMax=0;resizeLast=0;collapsible=1;marginBottom=0;whiteSpace=wrap;html=1;rounded=1;" vertex="1" parent="1">
          <mxGeometry x="220" y="280" width="140" height="180" as="geometry" />
        </mxCell>
        <mxCell id="LxVqRqJat0blrXqKGGtu-11" value="id" style="text;strokeColor=none;fillColor=none;align=left;verticalAlign=middle;spacingLeft=4;spacingRight=4;overflow=hidden;points=[[0,0.5],[1,0.5]];portConstraint=eastwest;rotatable=0;whiteSpace=wrap;html=1;" vertex="1" parent="LxVqRqJat0blrXqKGGtu-10">
          <mxGeometry y="30" width="140" height="30" as="geometry" />
        </mxCell>
        <mxCell id="LxVqRqJat0blrXqKGGtu-12" value="sender_phone" style="text;strokeColor=none;fillColor=none;align=left;verticalAlign=middle;spacingLeft=4;spacingRight=4;overflow=hidden;points=[[0,0.5],[1,0.5]];portConstraint=eastwest;rotatable=0;whiteSpace=wrap;html=1;" vertex="1" parent="LxVqRqJat0blrXqKGGtu-10">
          <mxGeometry y="60" width="140" height="30" as="geometry" />
        </mxCell>
        <mxCell id="LxVqRqJat0blrXqKGGtu-13" style="edgeStyle=orthogonalEdgeStyle;rounded=0;orthogonalLoop=1;jettySize=auto;html=1;" edge="1" parent="LxVqRqJat0blrXqKGGtu-10" source="LxVqRqJat0blrXqKGGtu-14">
          <mxGeometry relative="1" as="geometry">
            <mxPoint x="-40" y="70" as="targetPoint" />
            <Array as="points">
              <mxPoint x="-20" y="105" />
              <mxPoint x="-20" y="70" />
            </Array>
          </mxGeometry>
        </mxCell>
        <mxCell id="LxVqRqJat0blrXqKGGtu-14" value="reiceve_phone" style="text;strokeColor=none;fillColor=none;align=left;verticalAlign=middle;spacingLeft=4;spacingRight=4;overflow=hidden;points=[[0,0.5],[1,0.5]];portConstraint=eastwest;rotatable=0;whiteSpace=wrap;html=1;" vertex="1" parent="LxVqRqJat0blrXqKGGtu-10">
          <mxGeometry y="90" width="140" height="30" as="geometry" />
        </mxCell>
        <mxCell id="LxVqRqJat0blrXqKGGtu-15" value="message" style="text;strokeColor=none;fillColor=none;align=left;verticalAlign=middle;spacingLeft=4;spacingRight=4;overflow=hidden;points=[[0,0.5],[1,0.5]];portConstraint=eastwest;rotatable=0;whiteSpace=wrap;html=1;" vertex="1" parent="LxVqRqJat0blrXqKGGtu-10">
          <mxGeometry y="120" width="140" height="30" as="geometry" />
        </mxCell>
        <mxCell id="LxVqRqJat0blrXqKGGtu-16" value="time" style="text;strokeColor=none;fillColor=none;align=left;verticalAlign=middle;spacingLeft=4;spacingRight=4;overflow=hidden;points=[[0,0.5],[1,0.5]];portConstraint=eastwest;rotatable=0;whiteSpace=wrap;html=1;" vertex="1" parent="LxVqRqJat0blrXqKGGtu-10">
          <mxGeometry y="150" width="140" height="30" as="geometry" />
        </mxCell>
        <mxCell id="LxVqRqJat0blrXqKGGtu-17" value="Users" style="swimlane;fontStyle=0;childLayout=stackLayout;horizontal=1;startSize=30;horizontalStack=0;resizeParent=1;resizeParentMax=0;resizeLast=0;collapsible=1;marginBottom=0;whiteSpace=wrap;html=1;points=[[0,0,0,0,0],[0,0.25,0,0,0],[0,0.5,0,0,0],[0,0.75,0,0,0],[0,1,0,0,0],[0.25,0,0,0,0],[0.25,1,0,0,0],[0.5,0,0,0,0],[0.5,1,0,0,0],[0.75,0,0,0,0],[0.75,1,0,0,0],[1,0,0,0,0],[1,0.25,0,0,0],[1,0.5,0,0,0],[1,0.75,0,0,0],[1,1,0,0,0]];rounded=1;" vertex="1" parent="1">
          <mxGeometry x="40" y="275" width="140" height="210" as="geometry">
            <mxRectangle x="340" y="280" width="60" height="30" as="alternateBounds" />
          </mxGeometry>
        </mxCell>
        <mxCell id="LxVqRqJat0blrXqKGGtu-18" value="id" style="text;strokeColor=none;fillColor=none;align=left;verticalAlign=middle;spacingLeft=4;spacingRight=4;overflow=hidden;points=[[0,0.5],[1,0.5]];portConstraint=eastwest;rotatable=0;whiteSpace=wrap;html=1;" vertex="1" parent="LxVqRqJat0blrXqKGGtu-17">
          <mxGeometry y="30" width="140" height="30" as="geometry" />
        </mxCell>
        <mxCell id="LxVqRqJat0blrXqKGGtu-19" value="phone_number" style="text;strokeColor=none;fillColor=none;align=left;verticalAlign=middle;spacingLeft=4;spacingRight=4;overflow=hidden;points=[[0,0.5],[1,0.5]];portConstraint=eastwest;rotatable=0;whiteSpace=wrap;html=1;" vertex="1" parent="LxVqRqJat0blrXqKGGtu-17">
          <mxGeometry y="60" width="140" height="30" as="geometry" />
        </mxCell>
        <mxCell id="LxVqRqJat0blrXqKGGtu-20" value="name" style="text;strokeColor=none;fillColor=none;align=left;verticalAlign=middle;spacingLeft=4;spacingRight=4;overflow=hidden;points=[[0,0.5],[1,0.5]];portConstraint=eastwest;rotatable=0;whiteSpace=wrap;html=1;" vertex="1" parent="LxVqRqJat0blrXqKGGtu-17">
          <mxGeometry y="90" width="140" height="30" as="geometry" />
        </mxCell>
        <mxCell id="LxVqRqJat0blrXqKGGtu-21" value="bio" style="text;strokeColor=none;fillColor=none;align=left;verticalAlign=middle;spacingLeft=4;spacingRight=4;overflow=hidden;points=[[0,0.5],[1,0.5]];portConstraint=eastwest;rotatable=0;whiteSpace=wrap;html=1;" vertex="1" parent="LxVqRqJat0blrXqKGGtu-17">
          <mxGeometry y="120" width="140" height="30" as="geometry" />
        </mxCell>
        <mxCell id="LxVqRqJat0blrXqKGGtu-22" value="phone" style="text;strokeColor=none;fillColor=none;align=left;verticalAlign=middle;spacingLeft=4;spacingRight=4;overflow=hidden;points=[[0,0.5],[1,0.5]];portConstraint=eastwest;rotatable=0;whiteSpace=wrap;html=1;" vertex="1" parent="LxVqRqJat0blrXqKGGtu-17">
          <mxGeometry y="150" width="140" height="30" as="geometry" />
        </mxCell>
        <mxCell id="LxVqRqJat0blrXqKGGtu-23" value="creat_time" style="text;strokeColor=none;fillColor=none;align=left;verticalAlign=middle;spacingLeft=4;spacingRight=4;overflow=hidden;points=[[0,0.5],[1,0.5]];portConstraint=eastwest;rotatable=0;whiteSpace=wrap;html=1;" vertex="1" parent="LxVqRqJat0blrXqKGGtu-17">
          <mxGeometry y="180" width="140" height="30" as="geometry" />
        </mxCell>
        <mxCell id="LxVqRqJat0blrXqKGGtu-24" style="edgeStyle=orthogonalEdgeStyle;rounded=0;orthogonalLoop=1;jettySize=auto;html=1;entryX=0.5;entryY=0;entryDx=0;entryDy=0;" edge="1" parent="1" source="LxVqRqJat0blrXqKGGtu-5" target="LxVqRqJat0blrXqKGGtu-6">
          <mxGeometry relative="1" as="geometry">
            <Array as="points">
              <mxPoint x="290" y="120" />
            </Array>
          </mxGeometry>
        </mxCell>
        <mxCell id="LxVqRqJat0blrXqKGGtu-25" value="Phone_number sebagai kunci utama.&lt;br&gt;sender_phone : pengirim pesan&lt;br&gt;reiceve_phone : penerima pesan" style="text;html=1;align=left;verticalAlign=middle;whiteSpace=wrap;rounded=0;" vertex="1" parent="1">
          <mxGeometry x="40" y="585" width="240" height="40" as="geometry" />
        </mxCell>
        <mxCell id="LxVqRqJat0blrXqKGGtu-26" value="&lt;b&gt;&lt;font style=&quot;font-size: 19px;&quot;&gt;Deksripsi&lt;/font&gt;&lt;/b&gt;" style="text;html=1;align=center;verticalAlign=middle;whiteSpace=wrap;rounded=0;" vertex="1" parent="1">
          <mxGeometry x="26" y="541" width="60" height="30" as="geometry" />
        </mxCell>
        <mxCell id="LxVqRqJat0blrXqKGGtu-27" value="Setiap users yang login akan menjadi &lt;i&gt;&lt;u&gt;pengirim&lt;/u&gt;&lt;/i&gt; meskipun jika dia sebelumnya sebagai &lt;i&gt;&lt;u&gt;penerima&lt;/u&gt;&lt;/i&gt;" style="text;html=1;align=left;verticalAlign=middle;whiteSpace=wrap;rounded=0;" vertex="1" parent="1">
          <mxGeometry x="413" y="585" width="240" height="40" as="geometry" />
        </mxCell>
        <mxCell id="LxVqRqJat0blrXqKGGtu-28" style="edgeStyle=orthogonalEdgeStyle;rounded=0;orthogonalLoop=1;jettySize=auto;html=1;entryX=1;entryY=0.5;entryDx=0;entryDy=0;" edge="1" parent="1" source="LxVqRqJat0blrXqKGGtu-12" target="LxVqRqJat0blrXqKGGtu-19">
          <mxGeometry relative="1" as="geometry" />
        </mxCell>
      </root>
    </mxGraphModel>
  </diagram>
</mxfile>
